<svg width="9" height="16" viewBox="0 0 9 16" fill="none" xmlns="http://www.w3.org/2000/svg">
<path d="M0.754814 8.29964H2.41281V15.1276C2.41281 15.1924 2.43852 15.2544 2.48428 15.3002C2.53004 15.3459 2.5921 15.3716 2.65681 15.3716H5.46881C5.53352 15.3716 5.59558 15.3459 5.64134 15.3002C5.6871 15.2544 5.71281 15.1924 5.71281 15.1276V8.33164H7.61981C7.67961 8.33154 7.73729 8.30949 7.78191 8.26967C7.82652 8.22986 7.85495 8.17504 7.86182 8.11564L8.15181 5.60164C8.15575 5.56749 8.15245 5.5329 8.14209 5.50012C8.13173 5.46735 8.11457 5.43713 8.09172 5.41145C8.06887 5.38577 8.04085 5.36521 8.00951 5.35111C7.97816 5.33701 7.94418 5.32969 7.90981 5.32964H5.70981V3.75464C5.70981 3.27964 5.96582 3.03864 6.46982 3.03864H7.90581C7.97052 3.03864 8.03258 3.01293 8.07834 2.96717C8.1241 2.92141 8.14981 2.85935 8.14981 2.79464V0.487638C8.15035 0.423267 8.12543 0.361292 8.08047 0.315215C8.03552 0.269137 7.97417 0.242691 7.90981 0.241638L5.92882 0.241638H5.83781C4.92559 0.244857 4.04511 0.576815 3.35782 1.17664C3.0335 1.46006 2.78466 1.81961 2.63368 2.22298C2.4827 2.62636 2.4343 3.06093 2.49281 3.48764V5.33064H0.751808C0.687095 5.33064 0.625036 5.35635 0.579277 5.4021C0.533518 5.44786 0.507813 5.50993 0.507813 5.57464V8.05564C0.50781 8.08793 0.514215 8.11991 0.526665 8.14971C0.539114 8.17951 0.557361 8.20654 0.580338 8.22924C0.603314 8.25194 0.630564 8.26985 0.660515 8.28193C0.690465 8.29402 0.72252 8.30003 0.754814 8.29964Z" fill="#385C8E"/>
</svg>
