<svg width="295" height="98" fill="none" xmlns="http://www.w3.org/2000/svg">
  <rect y=".8" width="96.6" height="96.6" rx="16" fill="#40BFFF"/>
  <path fill-rule="evenodd" clip-rule="evenodd" d="M68 45c2 2 2 6 0 8L52 69c-2 2-5 2-8 0L28 53c-2-2-2-6 0-8l16-16c3-2 6-2 8 0l16 16Zm-20-4-8 8 8 9 9-9-9-8Z" fill="#fff"/>
  <path d="M128 37h-15v25h15v-5h-9v-5h8v-5h-8v-5h9v-5Zm4 15h16v-5h-16v5Zm20-2c0 7 5 12 13 12 6 0 10-3 12-8h-7c-1 2-3 3-5 3-4 0-7-3-7-7 0-5 3-8 7-8 2 0 4 1 5 4h7c-2-6-6-9-12-9-8 0-13 5-13 13Zm48 2c0-6-4-10-10-10s-11 4-11 10c0 7 5 11 11 11s10-4 10-11Zm-14 0c0-3 1-5 4-5 2 0 4 2 4 5 0 4-2 5-4 5-3 0-4-1-4-5Zm45 10h6V51c0-6-3-9-8-9-3 0-5 2-7 4-1-3-4-4-7-4-2 0-4 1-5 3v-3h-7v20h7V51c0-2 1-4 3-4 3 0 4 2 4 4v11h6V51c0-2 2-4 4-4 3 0 4 2 4 4v11Zm38 0h6V51c0-6-3-9-8-9-3 0-5 2-7 4-1-3-3-4-6-4s-5 1-6 3v-3h-7v20h7V51c0-2 1-4 4-4 2 0 3 2 3 4v11h6V51c0-2 2-4 4-4 3 0 4 2 4 4v11Z" fill="#22262A"/>
</svg>
