<svg width="39" height="26" viewBox="0 0 39 26" fill="none" xmlns="http://www.w3.org/2000/svg">
<path d="M2.22398 0.176514H37.1969C37.6476 0.185703 38.0763 0.373307 38.3885 0.698486C38.7008 1.02367 38.871 1.45968 38.8619 1.9104V23.5847C38.871 24.0354 38.7008 24.471 38.3885 24.7961C38.0763 25.1213 37.6476 25.3094 37.1969 25.3186H2.22398C1.77326 25.3094 1.34457 25.1213 1.03233 24.7961C0.72009 24.471 0.549831 24.0354 0.558941 23.5847V1.9104C0.549831 1.45968 0.72009 1.02367 1.03233 0.698486C1.34457 0.373307 1.77326 0.185703 2.22398 0.176514Z" fill="#5870BE"/>
<path d="M17.314 12.7433C17.3144 10.9675 17.8413 9.23179 18.8281 7.75548C19.8149 6.27918 21.2174 5.12865 22.858 4.44933C24.4987 3.77001 26.3039 3.59247 28.0455 3.93908C29.7871 4.28568 31.3869 5.14088 32.6425 6.39659C33.898 7.65231 34.7531 9.25213 35.0995 10.9938C35.4459 12.7354 35.268 14.5407 34.5885 16.1813C33.909 17.8219 32.7584 19.2239 31.282 20.2106C29.8056 21.1972 28.0697 21.724 26.2939 21.7242C25.1146 21.7242 23.9467 21.492 22.8572 21.0406C21.7676 20.5893 20.7776 19.9278 19.9437 19.0939C19.1098 18.2599 18.4484 17.2699 17.9972 16.1803C17.546 15.0907 17.3138 13.9226 17.314 12.7433Z" fill="#FFAF38"/>
<path d="M12.5346 21.7224C11.0036 21.7222 9.49796 21.3306 8.16086 20.5847C6.82376 19.8388 5.69958 18.7634 4.89511 17.4606C4.09065 16.1579 3.63262 14.6714 3.56455 13.1418C3.49647 11.6122 3.82064 10.0904 4.5062 8.72139C5.19175 7.35237 6.21598 6.18175 7.48154 5.32002C8.74709 4.45829 10.2119 3.93423 11.7369 3.79805C13.2619 3.66186 14.7965 3.91784 16.1947 4.5417C17.5929 5.16556 18.8084 6.13661 19.7257 7.3625H18.5257V7.9626H20.1386C20.2596 8.1536 20.3737 8.35147 20.4797 8.55147H17.9256V9.15156H20.7686C20.8566 9.35156 20.9357 9.55166 21.0057 9.75166H17.3257V10.3513H21.1937C21.6799 12.1253 21.6129 14.0055 21.0017 15.7404H17.3257V16.3405H20.7646C20.6746 16.5475 20.5777 16.7403 20.4797 16.9313H17.9256V17.5314H20.1317C19.9987 17.7414 19.8597 17.9425 19.7187 18.1315H18.5257V18.7316H19.2257C18.3829 19.672 17.3515 20.4243 16.1987 20.9396C15.0459 21.455 13.7974 21.7215 12.5346 21.7224Z" fill="#E63737"/>
<path d="M2.68381 14.3953L3.23051 10.1353L4.07902 10.2442L4.70026 13.3899C4.7572 13.6827 4.79803 13.9016 4.82275 14.0466C4.89107 13.8978 4.99583 13.6799 5.13704 13.3928L6.53738 10.5597L7.2958 10.6571L6.7491 14.917L6.20571 14.8473L6.66328 11.2818L4.96781 14.6884L4.45929 14.6232L3.69261 10.8386L3.22721 14.4651L2.68381 14.3953ZM9.65441 14.903C9.43956 15.0428 9.2377 15.135 9.04883 15.1797C8.86191 15.2246 8.66577 15.2339 8.46042 15.2076C8.1214 15.164 7.87141 15.0483 7.71044 14.8602C7.54972 14.6703 7.4859 14.4465 7.51896 14.1888C7.53835 14.0377 7.58991 13.9045 7.67362 13.7892C7.75952 13.6723 7.86253 13.5831 7.98265 13.5217C8.10471 13.4606 8.23796 13.4196 8.38241 13.3987C8.48857 13.3848 8.6469 13.3785 8.85742 13.3799C9.2862 13.3838 9.60484 13.3636 9.81332 13.3195C9.82446 13.2481 9.83127 13.2027 9.83375 13.1833C9.8611 12.9702 9.83097 12.8137 9.74336 12.7139C9.62485 12.5785 9.43387 12.494 9.1704 12.4601C8.92438 12.4286 8.73668 12.4488 8.60732 12.5208C8.48015 12.5911 8.37443 12.7321 8.29015 12.9438L7.78767 12.8085C7.86226 12.5955 7.9614 12.429 8.08511 12.3091C8.20906 12.1871 8.37637 12.1032 8.58704 12.0574C8.79796 12.0097 9.03612 12.0028 9.30152 12.0369C9.56499 12.0707 9.77507 12.1291 9.93178 12.2123C10.0885 12.2954 10.1995 12.3894 10.2648 12.4943C10.3304 12.5972 10.3694 12.7223 10.382 12.8697C10.388 12.961 10.3761 13.1229 10.3463 13.3554L10.2568 14.0528C10.1944 14.539 10.1655 14.8484 10.1702 14.981C10.177 15.1118 10.2058 15.2405 10.2565 15.3672L9.71017 15.297C9.66985 15.1816 9.65127 15.0502 9.65441 14.903ZM9.76074 13.7292C9.56095 13.7823 9.26772 13.8117 8.88106 13.8172C8.66205 13.8206 8.5055 13.8359 8.41141 13.8632C8.31733 13.8905 8.24122 13.9389 8.1831 14.0082C8.12522 14.0756 8.09044 14.1548 8.07875 14.2459C8.06085 14.3854 8.09824 14.5083 8.19092 14.6147C8.28553 14.7214 8.43454 14.7878 8.63795 14.8139C8.83943 14.8397 9.02422 14.8191 9.19232 14.7521C9.36067 14.6831 9.49148 14.5768 9.58473 14.4332C9.65608 14.3223 9.70654 14.1515 9.73613 13.921L9.76074 13.7292ZM10.8135 14.5023L11.3412 14.4873C11.3436 14.6983 11.4036 14.8675 11.5212 14.9948C11.6407 15.1224 11.8196 15.2015 12.0579 15.2321C12.2981 15.2629 12.4825 15.2373 12.6112 15.1554C12.7401 15.0715 12.813 14.9637 12.8299 14.832C12.8451 14.7138 12.8057 14.6142 12.7117 14.5332C12.646 14.4776 12.4753 14.3956 12.1998 14.2874C11.8286 14.1413 11.5729 14.0238 11.4327 13.9349C11.2947 13.8443 11.1949 13.7321 11.1333 13.5982C11.0739 13.4626 11.0539 13.3192 11.0733 13.1681C11.091 13.0305 11.1382 12.9076 11.2151 12.7994C11.2942 12.6894 11.393 12.6026 11.5114 12.5391C11.6005 12.4894 11.7174 12.4532 11.8621 12.4305C12.009 12.406 12.1628 12.4041 12.3236 12.4247C12.5658 12.4558 12.7734 12.5179 12.9466 12.611C13.1217 12.7043 13.2451 12.8167 13.3168 12.948C13.3889 13.0773 13.4285 13.2439 13.4358 13.4476L12.9155 13.4518C12.9126 13.2899 12.8607 13.1572 12.7598 13.0537C12.6608 12.9504 12.5096 12.8857 12.3062 12.8596C12.066 12.8288 11.8894 12.8465 11.7766 12.9128C11.6637 12.979 11.6004 13.0654 11.5868 13.172C11.5781 13.2398 11.5915 13.3035 11.6272 13.3632C11.6626 13.4249 11.7235 13.4799 11.8098 13.5284C11.8596 13.5545 12.0079 13.6188 12.2547 13.7214C12.612 13.8677 12.8592 13.9821 12.9963 14.0647C13.1356 14.1456 13.2392 14.2514 13.3071 14.3822C13.3749 14.513 13.3974 14.6675 13.3746 14.8458C13.3522 15.0201 13.2797 15.1782 13.1572 15.32C13.0368 15.4601 12.8752 15.5605 12.6725 15.6211C12.47 15.6798 12.2477 15.6936 12.0056 15.6625C11.6046 15.611 11.3092 15.4885 11.1194 15.2948C10.9315 15.1013 10.8296 14.8372 10.8135 14.5023ZM15.0821 15.5109L15.0984 15.9826C14.9472 15.9947 14.8134 15.9933 14.6972 15.9784C14.5074 15.954 14.364 15.9051 14.2671 15.8316C14.1702 15.7582 14.1066 15.6703 14.0764 15.5679C14.0465 15.4637 14.0517 15.2546 14.0919 14.9408L14.3198 13.1653L13.9362 13.1161L13.9884 12.7092L14.372 12.7585L14.4701 11.9942L15.0305 11.7472L14.8922 12.8252L15.4181 12.8927L15.3659 13.2995L14.8399 13.232L14.6084 15.0366C14.5892 15.1857 14.5856 15.2828 14.5976 15.3276C14.6115 15.3727 14.6372 15.4105 14.6746 15.4409C14.714 15.4715 14.7725 15.4918 14.8499 15.5018C14.9081 15.5092 14.9855 15.5123 15.0821 15.5109ZM17.7765 15.3221L18.3084 15.4583C18.1827 15.7631 17.9933 15.9879 17.7404 16.1327C17.4875 16.2774 17.1819 16.3268 16.8235 16.2808C16.3721 16.2229 16.0315 16.0384 15.8016 15.7273C15.574 15.4145 15.4923 15.0073 15.5567 14.5055C15.6234 13.9863 15.8087 13.6005 16.1129 13.3481C16.417 13.0957 16.7822 12.9969 17.2084 13.0516C17.621 13.1045 17.94 13.2882 18.1655 13.6027C18.391 13.9172 18.471 14.3291 18.4057 14.8386C18.4017 14.8696 18.3947 14.916 18.3849 14.9777L16.0834 14.6824C16.0593 15.0239 16.1219 15.2958 16.2712 15.4981C16.4204 15.7004 16.6239 15.8181 16.8816 15.8511C17.0734 15.8757 17.2435 15.8464 17.3921 15.763C17.5406 15.6797 17.6687 15.5327 17.7765 15.3221ZM16.1677 14.2561L17.8908 14.4772C17.9009 14.2146 17.86 14.0115 17.7682 13.8678C17.6275 13.6449 17.4244 13.5165 17.159 13.4824C16.9188 13.4516 16.706 13.506 16.5207 13.6456C16.3373 13.7855 16.2197 13.989 16.1677 14.2561ZM18.8433 16.4691L19.2393 13.3831L19.7101 13.4435L19.65 13.9114C19.7982 13.7079 19.9272 13.5777 20.0369 13.5209C20.1485 13.4643 20.2653 13.4439 20.3874 13.4596C20.5637 13.4822 20.7356 13.5614 20.9033 13.6971L20.6609 14.1592C20.5427 14.0673 20.4197 14.0131 20.2918 13.9967C20.1776 13.982 20.0704 14.0037 19.9704 14.0618C19.8707 14.1179 19.7936 14.2045 19.7392 14.3216C19.6572 14.5001 19.602 14.6998 19.5737 14.9206L19.3663 16.5363L18.8433 16.4691ZM24.1289 15.6292L24.6744 15.844C24.4968 16.2918 24.2383 16.618 23.899 16.8226C23.5618 17.0254 23.1714 17.0984 22.7278 17.0415C22.2687 16.9826 21.9067 16.8416 21.6419 16.6186C21.3793 16.3939 21.1952 16.0946 21.0896 15.7207C20.986 15.347 20.9602 14.9568 21.0124 14.5499C21.0694 14.1063 21.2032 13.7307 21.414 13.423C21.627 13.1136 21.9004 12.8936 22.2342 12.7632C22.5701 12.6311 22.926 12.5891 23.3019 12.6373C23.7281 12.692 24.0725 12.8465 24.3353 13.1008C24.598 13.355 24.7613 13.6861 24.8251 14.094L24.2533 14.1536C24.1943 13.8309 24.0799 13.5869 23.9101 13.4213C23.7404 13.2558 23.5131 13.1548 23.2283 13.1182C22.9009 13.0762 22.6168 13.1195 22.3758 13.248C22.1367 13.3769 21.9556 13.5683 21.8324 13.8222C21.7095 14.0743 21.63 14.3407 21.594 14.6216C21.5475 14.9839 21.5592 15.3073 21.629 15.592C21.7009 15.8749 21.8398 16.0975 22.0454 16.2598C22.251 16.422 22.4836 16.5198 22.7432 16.5531C23.059 16.5937 23.338 16.5369 23.5803 16.3829C23.8226 16.2289 24.0054 15.9777 24.1289 15.6292ZM27.1942 17.1539C26.9793 17.2937 26.7774 17.3859 26.5886 17.4306C26.4017 17.4756 26.2055 17.4848 26.0002 17.4585C25.6612 17.415 25.4112 17.2992 25.2502 17.1112C25.0895 16.9212 25.0256 16.6974 25.0587 16.4397C25.0781 16.2886 25.1297 16.1554 25.2134 16.0402C25.2993 15.9232 25.4023 15.834 25.5224 15.7726C25.6445 15.7115 25.7777 15.6705 25.9222 15.6497C26.0283 15.6357 26.1867 15.6295 26.3972 15.6309C26.8259 15.6347 27.1446 15.6146 27.3531 15.5704C27.3642 15.499 27.371 15.4536 27.3735 15.4342C27.4008 15.2211 27.3707 15.0646 27.2831 14.9648C27.1646 14.8295 26.9736 14.7449 26.7102 14.7111C26.4641 14.6795 26.2764 14.6997 26.1471 14.7717C26.0199 14.8421 25.9142 14.9831 25.8299 15.1948L25.3274 15.0594C25.402 14.8465 25.5012 14.68 25.6249 14.56C25.7488 14.4381 25.9161 14.3542 26.1268 14.3084C26.3377 14.2606 26.5759 14.2537 26.8413 14.2878C27.1047 14.3216 27.3148 14.3801 27.4715 14.4632C27.6282 14.5463 27.7392 14.6403 27.8046 14.7452C27.8701 14.8481 27.9092 14.9733 27.9218 15.1206C27.9278 15.2119 27.9159 15.3739 27.886 15.6063L27.7965 16.3037C27.7341 16.79 27.7053 17.0994 27.7099 17.2319C27.7168 17.3627 27.7455 17.4915 27.7962 17.6181L27.2499 17.548C27.2096 17.4325 27.191 17.3012 27.1942 17.1539ZM27.3005 15.9801C27.1007 16.0333 26.8075 16.0626 26.4208 16.0681C26.2018 16.0715 26.0452 16.0869 25.9512 16.1142C25.8571 16.1415 25.781 16.1898 25.7228 16.2591C25.665 16.3265 25.6302 16.4058 25.6185 16.4968C25.6006 16.6363 25.638 16.7592 25.7307 16.8657C25.8253 16.9723 25.9743 17.0387 26.1777 17.0648C26.3792 17.0907 26.564 17.0701 26.7321 17.003C26.9004 16.934 27.0312 16.8278 27.1245 16.6842C27.1958 16.5732 27.2463 16.4025 27.2759 16.1719L27.3005 15.9801ZM28.4384 17.7005L28.8345 14.6145L29.3052 14.6749L29.2452 15.1427C29.3934 14.9393 29.5223 14.8091 29.632 14.7523C29.7436 14.6957 29.8605 14.6753 29.9825 14.6909C30.1588 14.7136 30.3308 14.7927 30.4985 14.9285L30.256 15.3906C30.1379 15.2987 30.0148 15.2445 29.887 15.2281C29.7727 15.2134 29.6655 15.2351 29.5655 15.2931C29.4658 15.3493 29.3887 15.4359 29.3343 15.5529C29.2523 15.7315 29.1972 15.9311 29.1688 16.152L28.9615 17.7676L28.4384 17.7005ZM32.4282 18.2125L32.4781 17.8231C32.2432 18.1041 31.9359 18.2202 31.5562 18.1715C31.3101 18.1399 31.0922 18.043 30.9023 17.8808C30.7144 17.7189 30.5788 17.5095 30.4956 17.2527C30.4145 16.9942 30.3943 16.707 30.4348 16.3912C30.4743 16.0832 30.5615 15.8108 30.6962 15.5741C30.8312 15.3355 31.0099 15.1625 31.2324 15.0551C31.4549 14.9478 31.6931 14.9105 31.9469 14.943C32.1328 14.9669 32.2934 15.0279 32.4285 15.1259C32.5638 15.2221 32.6689 15.3389 32.7438 15.4765L32.94 13.9481L33.4601 14.0148L32.9134 18.2748L32.4282 18.2125ZM30.9724 16.4602C30.9217 16.8554 30.967 17.1615 31.1085 17.3786C31.25 17.5956 31.4341 17.7187 31.6608 17.7478C31.8894 17.7771 32.095 17.709 32.2777 17.5434C32.4626 17.3761 32.5797 17.1007 32.6289 16.7171C32.6831 16.2948 32.6415 15.9744 32.5042 15.7559C32.3668 15.5374 32.179 15.4129 31.9407 15.3823C31.7082 15.3525 31.5014 15.4224 31.3201 15.5922C31.1407 15.7621 31.0248 16.0515 30.9724 16.4602Z" fill="white"/>
</svg>
