<svg width="39" height="26" viewBox="0 0 39 26" fill="none" xmlns="http://www.w3.org/2000/svg">
<path d="M2.40687 0.337646H37.1419C37.5906 0.349702 38.0164 0.53866 38.3263 0.863525C38.6362 1.18839 38.8049 1.62267 38.7958 2.07153V23.7444C38.8049 24.1932 38.6362 24.6275 38.3263 24.9524C38.0164 25.2773 37.5906 25.4662 37.1419 25.4783H2.40687C1.95807 25.4662 1.53217 25.2773 1.2223 24.9524C0.91242 24.6275 0.743674 24.1932 0.752815 23.7444V2.07251C0.743406 1.62348 0.912147 1.1891 1.22205 0.864014C1.53196 0.538931 1.9579 0.349701 2.40687 0.337646Z" fill="#F1F1F1"/>
<path d="M1.16468 24.8875C0.899064 24.5667 0.754399 24.1628 0.755745 23.7463V2.07251C0.746336 1.62348 0.914955 1.1891 1.22486 0.864014C1.53477 0.538931 1.9607 0.349701 2.40968 0.337646H37.1437C37.5654 0.338593 37.9697 0.505107 38.2697 0.801514L1.16969 24.8875H1.16468Z" fill="white" fill-opacity="0.73"/>
<path d="M15.4011 18.3026L16.701 15.9525L15.9771 10.3084H17.748L18.0341 13.6488L19.7671 10.3084H21.5951L17.3861 18.3026H15.4011ZM9.84802 14.0867C10.121 12.7127 11.448 12.2767 13.41 12.2767C13.527 11.6657 13.1381 11.5125 12.4761 11.5355C11.8924 11.5637 11.3186 11.6969 10.7821 11.9285L10.937 10.5555C11.5812 10.3553 12.2483 10.2379 12.9221 10.2064C14.1481 10.1844 15.5111 10.5758 15.2001 12.1688L14.441 15.9188H12.67L12.786 15.3504C12.5805 15.5625 12.3347 15.7319 12.0631 15.848C11.7915 15.964 11.4995 16.0248 11.2041 16.0267C10.3651 16.0227 9.61812 15.4763 9.84912 14.0823L9.84802 14.0867ZM11.6591 13.9993C11.6033 14.0783 11.5717 14.1718 11.5679 14.2684C11.5641 14.3649 11.5884 14.4607 11.6378 14.5438C11.6872 14.6268 11.7595 14.6939 11.8462 14.7366C11.9329 14.7794 12.0301 14.7958 12.1261 14.7845C12.3452 14.7943 12.5604 14.7245 12.7322 14.5882C12.904 14.4519 13.0208 14.2584 13.061 14.0428C13.0842 13.8743 13.1176 13.7073 13.161 13.5428H12.713C12.5135 13.5243 12.3125 13.556 12.1284 13.6351C11.9443 13.7142 11.7829 13.8379 11.6591 13.9954V13.9993ZM3.74805 15.9188L5.21204 8.74641H8.51904C8.81384 8.7438 9.105 8.81202 9.36804 8.94514C9.63109 9.07826 9.8584 9.27246 10.0309 9.51155C10.2034 9.75063 10.316 10.0276 10.3594 10.3192C10.4027 10.6108 10.3755 10.9084 10.28 11.1873C10.1848 11.8432 9.85609 12.4426 9.35413 12.8753C8.85216 13.308 8.21081 13.5453 7.5481 13.5428H6.16504L5.69006 15.9188H3.74805ZM6.44104 12.1688H7.35107C7.61727 12.1475 7.86932 12.04 8.06934 11.8631C8.26935 11.6862 8.40652 11.4489 8.46008 11.1873C8.50206 11.0797 8.51746 10.9638 8.505 10.8489C8.49255 10.7341 8.45262 10.6238 8.38855 10.5277C8.32448 10.4315 8.23818 10.3524 8.13696 10.2967C8.03575 10.241 7.92252 10.2101 7.80701 10.2073H6.85706L6.44104 12.1688Z" fill="#3284AE"/>
<path d="M27.0648 14.0823C27.3408 12.7083 28.6818 12.2737 30.6708 12.2737C30.8088 11.6617 30.4149 11.5105 29.7449 11.5325C29.1487 11.5631 28.5622 11.6958 28.0109 11.9246L28.1688 10.5515C28.8286 10.3539 29.51 10.2369 30.1979 10.2034C31.4389 10.1814 32.7978 10.5723 32.4828 12.1643L31.7148 15.9133H29.9418L30.0598 15.3474C29.6302 15.7766 29.049 16.0197 28.4418 16.0237C27.5838 16.0227 26.8278 15.4773 27.0648 14.0823ZM28.8978 13.9954C28.8439 14.0769 28.8146 14.1725 28.8135 14.2703C28.8123 14.368 28.8395 14.4638 28.8915 14.5466C28.9435 14.6294 29.0181 14.6956 29.1067 14.7371C29.1952 14.7785 29.294 14.7936 29.3909 14.7805C29.6087 14.7902 29.8225 14.7203 29.9928 14.5842C30.1631 14.4481 30.2782 14.2549 30.3168 14.0403C30.3558 13.8653 30.3759 13.7123 30.4169 13.5403H29.9838C29.7788 13.5195 29.572 13.5504 29.3818 13.6296C29.1917 13.7089 29.0243 13.8342 28.8948 13.9944L28.8978 13.9954ZM32.5338 15.9133L33.9999 8.71948H35.8198L34.3348 15.9133H32.5338ZM20.9648 15.9133L22.4269 8.74243H25.7268C26.0208 8.74164 26.3107 8.81092 26.5725 8.94458C26.8343 9.07824 27.0605 9.27244 27.2323 9.51099C27.4041 9.74954 27.5164 10.0255 27.5602 10.3162C27.6039 10.6069 27.5777 10.9038 27.4838 11.1824C27.3885 11.8405 27.0578 12.4417 26.5531 12.8748C26.0484 13.3078 25.4038 13.5432 24.7388 13.5374H23.3759L22.8818 15.9124L20.9648 15.9133ZM23.6519 12.1643H24.5398C24.8081 12.1436 25.0627 12.0373 25.2657 11.8606C25.4687 11.6839 25.6094 11.4463 25.6669 11.1833C25.7067 11.0742 25.7198 10.9573 25.7053 10.842C25.6908 10.7268 25.649 10.6166 25.5834 10.5208C25.5178 10.4249 25.4302 10.3465 25.328 10.2913C25.2258 10.2361 25.112 10.2057 24.9958 10.2034H24.0479L23.6519 12.1643Z" fill="#3CA9C7"/>
</svg>
