<svg width="22" height="22" viewBox="0 0 22 22" fill="none" xmlns="http://www.w3.org/2000/svg">
<path fill-rule="evenodd" clip-rule="evenodd" d="M20.7067 19.6109L14.3987 13.2739C15.5304 11.6677 16.0175 9.69511 15.7635 7.74679C15.5095 5.79846 14.533 4.01663 13.0273 2.75429C11.5217 1.49196 9.59677 0.84123 7.63401 0.931051C5.67125 1.02087 3.81385 1.84464 2.42978 3.23922C1.04572 4.63379 0.23596 6.49739 0.160986 8.46078C0.0860119 10.4242 0.751283 12.3441 2.02497 13.8402C3.29866 15.3362 5.08784 16.2993 7.03803 16.5385C8.98822 16.7778 10.9571 16.2758 12.5547 15.1319L18.8627 21.4699C18.984 21.5939 19.1288 21.6925 19.2886 21.76C19.4485 21.8275 19.6201 21.8626 19.7936 21.8632C19.9671 21.8638 20.1389 21.8299 20.2992 21.7634C20.4595 21.697 20.6049 21.5994 20.7271 21.4763C20.8494 21.3531 20.9459 21.2069 21.0111 21.0462C21.0763 20.8854 21.1089 20.7133 21.107 20.5398C21.1051 20.3663 21.0687 20.195 21 20.0357C20.9313 19.8764 20.8316 19.7323 20.7067 19.6119V19.6109ZM8.01768 13.9689C6.97672 13.9746 5.95749 13.6712 5.08918 13.0971C4.22086 12.5229 3.54254 11.7039 3.1402 10.7439C2.73786 9.78379 2.62961 8.72584 2.82917 7.70418C3.02872 6.68252 3.52711 5.74313 4.26114 5.00503C4.99518 4.26692 5.93183 3.76333 6.95237 3.55813C7.97291 3.35292 9.03141 3.45535 9.99369 3.85238C10.956 4.2494 11.7787 4.92316 12.3576 5.78829C12.9366 6.65342 13.2457 7.67091 13.2457 8.71187C13.2457 10.1011 12.6958 11.4339 11.7162 12.419C10.7366 13.404 9.40689 13.9612 8.01768 13.9689Z" fill="#22262A"/>
</svg>
