<svg width="40" height="26" fill="none" xmlns="http://www.w3.org/2000/svg">
  <path d="M2 0h35a2 2 0 0 1 2 2v22a2 2 0 0 1-2 1H2a2 2 0 0 1-1-1V2a2 2 0 0 1 1-2Z" fill="url(#a)"/>
  <path d="M31 17v-1h-3l-1 1h-2l3-8a1 1 0 0 1 1 0h2l2 8h-2Zm-1-6-2 3h2v-3Zm-8 0c0 1 3 1 3 4 0 2-2 2-3 2h-3v-2h4c0-1-3-1-3-4 0-2 3-2 4-2h2l-1 2h-3Zm-6 6 1-8h2l-1 8h-2Zm-5 0-2-7 1 1 2 2v2l2-6h2l-3 8h-2ZM7 9ZM6 9Zm1 0Zm2 1H8h1ZM8 9ZM7 9Z" fill="#494CA3"/>
  <path d="m12 13-1-4a1 1 0 0 0-1 0H6l4 2 2 2Z" fill="#FFC000"/>
  <defs>
    <linearGradient id="a" x1="20" y1="25.3" x2="20" y2=".2" gradientUnits="userSpaceOnUse">
      <stop stop-color="#E59703"/>
      <stop offset=".2" stop-color="#E59703"/>
      <stop offset=".2" stop-color="#fff"/>
      <stop offset=".8" stop-color="#fff"/>
      <stop offset=".8" stop-color="#5457BB"/>
      <stop offset="1" stop-color="#5457BB"/>
    </linearGradient>
  </defs>
</svg>
