<svg width="40" height="26" viewBox="0 0 40 26" fill="none" xmlns="http://www.w3.org/2000/svg">
<path d="M2.35679 0.374268H37.3388C37.5621 0.378688 37.7822 0.427303 37.9868 0.516846C38.1914 0.606388 38.3763 0.735214 38.531 0.89624C38.6857 1.05727 38.8072 1.24734 38.8885 1.45532C38.9698 1.6633 39.0093 1.88538 39.0047 2.10864V23.7844C39.0136 24.2351 38.843 24.6709 38.5306 24.9958C38.2182 25.3208 37.7896 25.5084 37.3388 25.5173H2.35679C1.90607 25.5084 1.47732 25.3208 1.1649 24.9958C0.852471 24.6709 0.681937 24.2351 0.690776 23.7844V2.10864C0.686266 1.88538 0.725818 1.6633 0.807109 1.45532C0.888401 1.24734 1.00982 1.05727 1.16453 0.89624C1.31924 0.735214 1.50416 0.606388 1.70872 0.516846C1.91329 0.427303 2.13353 0.378688 2.35679 0.374268Z" fill="#353A40"/>
<path d="M23.3795 16.9386C23.1151 16.8042 22.8977 16.5925 22.7556 16.3322C22.5852 16.0135 22.5024 15.6557 22.5156 15.2946C22.501 15.0484 22.5352 14.8017 22.6166 14.569C22.6979 14.3362 22.8248 14.122 22.9896 13.9386C23.1649 13.7717 23.3725 13.6425 23.5997 13.5592C23.827 13.4759 24.0689 13.44 24.3105 13.4542C24.554 13.4386 24.7981 13.4728 25.0278 13.5548C25.2576 13.6368 25.4681 13.765 25.6466 13.9313C25.8099 14.1113 25.9354 14.3221 26.016 14.5514C26.0965 14.7807 26.1305 15.0237 26.1156 15.2662C26.1305 15.6179 26.0618 15.9681 25.9155 16.2882C25.7833 16.5488 25.5776 16.7648 25.3236 16.9093C25.0262 17.0666 24.6928 17.1433 24.3566 17.1315C24.0204 17.1436 23.6859 17.0776 23.3795 16.9386ZM23.7855 14.5216C23.6566 14.7599 23.5891 15.0265 23.5891 15.2975C23.5891 15.5685 23.6566 15.835 23.7855 16.0734C23.8535 16.1472 23.9362 16.2059 24.0281 16.2462C24.12 16.2865 24.2192 16.3077 24.3196 16.3077C24.4199 16.3077 24.5192 16.2865 24.6111 16.2462C24.703 16.2059 24.7855 16.1472 24.8535 16.0734C25.0051 15.8261 25.0719 15.5359 25.0436 15.2472C25.0651 14.9866 24.9944 14.7269 24.8436 14.5133C24.7775 14.4368 24.6949 14.3766 24.6021 14.3366C24.5092 14.2965 24.4086 14.2779 24.3076 14.2824C24.2081 14.2796 24.1093 14.2995 24.0188 14.341C23.9283 14.3824 23.8484 14.4445 23.7855 14.5216ZM13.8735 17.0953C13.6992 17.0782 13.5297 17.0287 13.3735 16.9493C13.232 16.8721 13.107 16.7677 13.0056 16.6422C12.9018 16.5232 12.8238 16.3842 12.7766 16.2335C12.7153 16.0392 12.6816 15.8371 12.6766 15.6334V13.5153H13.7476V15.6832C13.7428 15.7657 13.7543 15.8485 13.7816 15.9264C13.8089 16.0043 13.8514 16.0759 13.9066 16.1373C14.028 16.2416 14.1826 16.299 14.3425 16.299C14.5025 16.299 14.6572 16.2416 14.7786 16.1373C14.8337 16.0753 14.8761 16.0029 14.9032 15.9244C14.9303 15.846 14.9416 15.7631 14.9365 15.6803V13.5123H16.0076V15.6305C16.0081 15.8347 15.9743 16.0376 15.9076 16.2306C15.8459 16.4142 15.7433 16.5812 15.6075 16.7194C15.4878 16.85 15.3407 16.9522 15.1766 17.0192C14.9354 17.1032 14.6809 17.1433 14.4255 17.1373C14.2412 17.1337 14.0573 17.1193 13.8746 17.0944L13.8735 17.0953ZM29.0126 17.0714L27.7125 15.1193V17.0714H26.7025V13.5162H27.7025L29.0116 15.4826V13.5162H30.0236V17.0714H29.0126ZM19.0345 17.0714L17.7346 15.1193V17.0714H16.7246V13.5162H17.7246L19.0326 15.4826V13.5162H20.0446V17.0714H19.0345ZM20.8046 17.0621V13.5133H21.8845V17.0621H20.8046ZM12.5996 12.0812C12.3681 11.8413 12.2306 11.5264 12.2125 11.1935L13.2346 11.1285C13.2453 11.2672 13.2914 11.4005 13.3685 11.5162C13.4242 11.5879 13.4965 11.645 13.579 11.6827C13.6615 11.7205 13.7519 11.7382 13.8425 11.7335C13.9706 11.742 14.0973 11.7021 14.1976 11.6222C14.2352 11.5925 14.2656 11.5549 14.2867 11.5118C14.3079 11.4688 14.3191 11.4216 14.3197 11.3737C14.3203 11.3258 14.3101 11.2785 14.29 11.235C14.27 11.1915 14.2404 11.1528 14.2036 11.1222C14.0374 11.0145 13.8497 10.9441 13.6536 10.9161C13.2881 10.855 12.9428 10.7072 12.6466 10.4845C12.549 10.3995 12.4713 10.2936 12.4194 10.1749C12.3676 10.0563 12.3427 9.92789 12.3466 9.79847C12.347 9.61476 12.4009 9.43505 12.5016 9.28138C12.6155 9.10996 12.7782 8.97675 12.9686 8.89857C13.2411 8.79422 13.5321 8.74675 13.8236 8.75941C14.1805 8.7356 14.5359 8.82435 14.8396 9.01331C14.9621 9.11025 15.0625 9.23242 15.1343 9.37122C15.206 9.51003 15.2474 9.66246 15.2556 9.81849L14.2435 9.87952C14.2303 9.74664 14.1701 9.62275 14.0736 9.5304C13.9715 9.45247 13.8448 9.4139 13.7166 9.42152C13.6159 9.41419 13.516 9.44295 13.4346 9.50257C13.4046 9.52653 13.3805 9.55679 13.364 9.59144C13.3476 9.62609 13.3392 9.66392 13.3396 9.70228C13.3404 9.73223 13.3479 9.76156 13.3616 9.78822C13.3752 9.81487 13.3947 9.83846 13.4186 9.85658C13.5278 9.92611 13.6511 9.9704 13.7795 9.98646C14.1271 10.0508 14.4659 10.1562 14.7886 10.3004C14.9706 10.3876 15.1241 10.5246 15.2316 10.6954C15.3244 10.8546 15.3722 11.0361 15.3696 11.2203C15.3709 11.4442 15.3065 11.6634 15.1846 11.8512C15.0592 12.045 14.8793 12.1973 14.6676 12.2892C14.4023 12.3963 14.1175 12.4474 13.8315 12.4386C13.3899 12.4848 12.9478 12.3559 12.5996 12.0802V12.0812ZM29.0135 12.3712L27.7136 10.4186V12.3712H26.7036V8.81654H27.7036L29.0126 10.7833V8.81654H30.0245V12.3712H29.0135ZM25.1385 12.3712L24.5646 11.2843C24.5184 11.1812 24.4521 11.0885 24.3696 11.0114C24.2927 10.9563 24.2002 10.9273 24.1056 10.9284H24.0106V12.3712H22.9315V8.81654H24.7206C24.9772 8.80646 25.2338 8.83572 25.4816 8.90345C25.6555 8.96028 25.8053 9.07383 25.9066 9.2262C26.0178 9.39728 26.074 9.59845 26.0676 9.80238C26.0721 9.98054 26.0296 10.157 25.9446 10.3136C25.8622 10.456 25.7453 10.575 25.6046 10.6603C25.4871 10.727 25.3599 10.775 25.2275 10.8024C25.3268 10.8317 25.4211 10.8754 25.5076 10.9323C25.5718 10.9879 25.6293 11.051 25.6786 11.1202C25.7357 11.1887 25.7862 11.2626 25.8296 11.3405L26.3496 12.3712H25.1385ZM24.0116 10.2555H24.4646C24.5606 10.2486 24.6556 10.2322 24.7485 10.2072C24.8182 10.1928 24.8802 10.1535 24.9226 10.0963C24.9677 10.0368 24.9916 9.96394 24.9906 9.88929C24.9937 9.83993 24.9857 9.79062 24.9672 9.74476C24.9486 9.6989 24.92 9.65753 24.8835 9.62415C24.7639 9.55061 24.6232 9.51881 24.4835 9.53333H24.0116V10.2555ZM19.4116 12.3712V8.81654H22.2896V9.57533H20.4896V10.1403H22.1616V10.8663H20.4896V11.5665H22.3446V12.3712H19.4116ZM16.7595 12.3712V9.69447H15.6646V8.81654H18.9296V9.69447H17.8296V12.3712H16.7595ZM8.89453 12.3712V8.81654H11.7726V9.57533H9.97253V10.1403H11.6436V10.8663H9.9646V11.5665H11.8176V12.3712H8.89453ZM6.72754 12.3712L6.11853 10.1325L5.5116 12.3712H4.45862L3.68555 8.81654H4.70557L5.07263 10.8063L5.6106 8.81654H6.62659L7.16553 10.8043L7.53259 8.81654H8.54761L7.78162 12.3712H6.72754Z" fill="#ECD345"/>
<path d="M34.8147 17.1335V8.75366H36.0146V17.1335H34.8147ZM31.8247 17.1335V8.75366H33.0247V17.1335H31.8247Z" fill="#ECD345"/>
</svg>
